<svg width="213" height="183" viewBox="0 0 213 183" fill="none" xmlns="http://www.w3.org/2000/svg">
<rect width="212.72" height="183" fill="#706E3E"/>
<path d="M58.2559 86.2959C56.8086 85.8799 55.7539 85.3701 55.0918 84.7666C54.4355 84.1572 54.1074 83.4072 54.1074 82.5166C54.1074 81.5088 54.5088 80.6768 55.3115 80.0205C56.1201 79.3584 57.1689 79.0273 58.458 79.0273C59.3369 79.0273 60.1191 79.1973 60.8047 79.5371C61.4961 79.877 62.0293 80.3457 62.4043 80.9434C62.7852 81.541 62.9756 82.1943 62.9756 82.9033H61.2793C61.2793 82.1299 61.0332 81.5234 60.541 81.084C60.0488 80.6387 59.3545 80.416 58.458 80.416C57.626 80.416 56.9756 80.6006 56.5068 80.9697C56.0439 81.333 55.8125 81.8398 55.8125 82.4902C55.8125 83.0117 56.0322 83.4541 56.4717 83.8174C56.917 84.1748 57.6699 84.5029 58.7305 84.8018C59.7969 85.1006 60.6289 85.4316 61.2266 85.7949C61.8301 86.1523 62.2754 86.5713 62.5625 87.0518C62.8555 87.5322 63.002 88.0977 63.002 88.748C63.002 89.7852 62.5977 90.6172 61.7891 91.2441C60.9805 91.8652 59.8994 92.1758 58.5459 92.1758C57.667 92.1758 56.8467 92.0088 56.085 91.6748C55.3232 91.335 54.7344 90.8721 54.3184 90.2861C53.9082 89.7002 53.7031 89.0352 53.7031 88.291H55.3994C55.3994 89.0645 55.6836 89.6768 56.252 90.1279C56.8262 90.5732 57.5908 90.7959 58.5459 90.7959C59.4365 90.7959 60.1191 90.6143 60.5938 90.251C61.0684 89.8877 61.3057 89.3926 61.3057 88.7656C61.3057 88.1387 61.0859 87.6553 60.6465 87.3154C60.207 86.9697 59.4102 86.6299 58.2559 86.2959ZM68.8643 92.1758C67.5752 92.1758 66.5264 91.7539 65.7178 90.9102C64.9092 90.0605 64.5049 88.9268 64.5049 87.5088V87.21C64.5049 86.2666 64.6836 85.4258 65.041 84.6875C65.4043 83.9434 65.9082 83.3633 66.5527 82.9473C67.2031 82.5254 67.9062 82.3145 68.6621 82.3145C69.8984 82.3145 70.8594 82.7217 71.5449 83.5361C72.2305 84.3506 72.5732 85.5166 72.5732 87.0342V87.7109H66.1309C66.1543 88.6484 66.4268 89.4072 66.9482 89.9873C67.4756 90.5615 68.1436 90.8486 68.9521 90.8486C69.5264 90.8486 70.0127 90.7314 70.4111 90.4971C70.8096 90.2627 71.1582 89.9521 71.457 89.5654L72.4502 90.3389C71.6533 91.5635 70.458 92.1758 68.8643 92.1758ZM68.6621 83.6504C68.0059 83.6504 67.4551 83.8906 67.0098 84.3711C66.5645 84.8457 66.2891 85.5137 66.1836 86.375H70.9473V86.252C70.9004 85.4258 70.6777 84.7871 70.2793 84.3359C69.8809 83.8789 69.3418 83.6504 68.6621 83.6504ZM75.9922 82.4902L76.0361 83.5449C76.7334 82.7246 77.6738 82.3145 78.8574 82.3145C80.1875 82.3145 81.0928 82.8242 81.5732 83.8438C81.8896 83.3867 82.2998 83.0176 82.8037 82.7363C83.3135 82.4551 83.9141 82.3145 84.6055 82.3145C86.6914 82.3145 87.752 83.4189 87.7871 85.6279V92H86.1611V85.7246C86.1611 85.0449 86.0059 84.5381 85.6953 84.2041C85.3848 83.8643 84.8633 83.6943 84.1309 83.6943C83.5273 83.6943 83.0264 83.876 82.6279 84.2393C82.2295 84.5967 81.998 85.0801 81.9336 85.6895V92H80.2988V85.7686C80.2988 84.3857 79.6221 83.6943 78.2686 83.6943C77.2021 83.6943 76.4727 84.1484 76.0801 85.0566V92H74.4541V82.4902H75.9922ZM96.4795 92H94.8535V82.4902H96.4795V92ZM94.7217 79.9678C94.7217 79.7041 94.8008 79.4814 94.959 79.2998C95.123 79.1182 95.3633 79.0273 95.6797 79.0273C95.9961 79.0273 96.2363 79.1182 96.4004 79.2998C96.5645 79.4814 96.6465 79.7041 96.6465 79.9678C96.6465 80.2314 96.5645 80.4512 96.4004 80.627C96.2363 80.8027 95.9961 80.8906 95.6797 80.8906C95.3633 80.8906 95.123 80.8027 94.959 80.627C94.8008 80.4512 94.7217 80.2314 94.7217 79.9678ZM100.619 82.4902L100.663 83.5449C101.36 82.7246 102.301 82.3145 103.484 82.3145C104.814 82.3145 105.72 82.8242 106.2 83.8438C106.517 83.3867 106.927 83.0176 107.431 82.7363C107.94 82.4551 108.541 82.3145 109.232 82.3145C111.318 82.3145 112.379 83.4189 112.414 85.6279V92H110.788V85.7246C110.788 85.0449 110.633 84.5381 110.322 84.2041C110.012 83.8643 109.49 83.6943 108.758 83.6943C108.154 83.6943 107.653 83.876 107.255 84.2393C106.856 84.5967 106.625 85.0801 106.561 85.6895V92H104.926V85.7686C104.926 84.3857 104.249 83.6943 102.896 83.6943C101.829 83.6943 101.1 84.1484 100.707 85.0566V92H99.0811V82.4902H100.619ZM120.746 92C120.652 91.8125 120.576 91.4785 120.518 90.998C119.762 91.7832 118.859 92.1758 117.811 92.1758C116.873 92.1758 116.103 91.9121 115.499 91.3848C114.901 90.8516 114.603 90.1777 114.603 89.3633C114.603 88.373 114.978 87.6055 115.728 87.0605C116.483 86.5098 117.544 86.2344 118.909 86.2344H120.491V85.4873C120.491 84.9189 120.321 84.4678 119.981 84.1338C119.642 83.7939 119.141 83.624 118.479 83.624C117.898 83.624 117.412 83.7705 117.02 84.0635C116.627 84.3564 116.431 84.7109 116.431 85.127H114.796C114.796 84.6523 114.963 84.1953 115.297 83.7559C115.637 83.3105 116.094 82.959 116.668 82.7012C117.248 82.4434 117.884 82.3145 118.575 82.3145C119.671 82.3145 120.529 82.5898 121.15 83.1406C121.771 83.6855 122.094 84.4385 122.117 85.3994V89.7764C122.117 90.6494 122.229 91.3438 122.451 91.8594V92H120.746ZM118.048 90.7607C118.558 90.7607 119.041 90.6289 119.498 90.3652C119.955 90.1016 120.286 89.7588 120.491 89.3369V87.3857H119.217C117.225 87.3857 116.229 87.9688 116.229 89.1348C116.229 89.6445 116.398 90.043 116.738 90.3301C117.078 90.6172 117.515 90.7607 118.048 90.7607ZM124.279 87.166C124.279 85.6836 124.622 84.5059 125.308 83.6328C125.993 82.7539 126.901 82.3145 128.032 82.3145C129.192 82.3145 130.098 82.7246 130.748 83.5449L130.827 82.4902H132.312V91.7715C132.312 93.002 131.946 93.9717 131.214 94.6807C130.487 95.3896 129.509 95.7441 128.278 95.7441C127.593 95.7441 126.922 95.5977 126.266 95.3047C125.609 95.0117 125.108 94.6104 124.763 94.1006L125.606 93.125C126.304 93.9863 127.156 94.417 128.164 94.417C128.955 94.417 129.57 94.1943 130.01 93.749C130.455 93.3037 130.678 92.6768 130.678 91.8682V91.0508C130.027 91.8008 129.14 92.1758 128.015 92.1758C126.901 92.1758 125.999 91.7275 125.308 90.8311C124.622 89.9346 124.279 88.7129 124.279 87.166ZM125.914 87.3506C125.914 88.4229 126.134 89.2666 126.573 89.8818C127.013 90.4912 127.628 90.7959 128.419 90.7959C129.444 90.7959 130.197 90.3301 130.678 89.3984V85.0566C130.18 84.1484 129.433 83.6943 128.437 83.6943C127.646 83.6943 127.027 84.002 126.582 84.6172C126.137 85.2324 125.914 86.1436 125.914 87.3506ZM138.72 92.1758C137.431 92.1758 136.382 91.7539 135.573 90.9102C134.765 90.0605 134.36 88.9268 134.36 87.5088V87.21C134.36 86.2666 134.539 85.4258 134.896 84.6875C135.26 83.9434 135.764 83.3633 136.408 82.9473C137.059 82.5254 137.762 82.3145 138.518 82.3145C139.754 82.3145 140.715 82.7217 141.4 83.5361C142.086 84.3506 142.429 85.5166 142.429 87.0342V87.7109H135.986C136.01 88.6484 136.282 89.4072 136.804 89.9873C137.331 90.5615 137.999 90.8486 138.808 90.8486C139.382 90.8486 139.868 90.7314 140.267 90.4971C140.665 90.2627 141.014 89.9521 141.312 89.5654L142.306 90.3389C141.509 91.5635 140.313 92.1758 138.72 92.1758ZM138.518 83.6504C137.861 83.6504 137.311 83.8906 136.865 84.3711C136.42 84.8457 136.145 85.5137 136.039 86.375H140.803V86.252C140.756 85.4258 140.533 84.7871 140.135 84.3359C139.736 83.8789 139.197 83.6504 138.518 83.6504ZM145.848 82.4902L145.892 83.5449C146.589 82.7246 147.529 82.3145 148.713 82.3145C150.043 82.3145 150.948 82.8242 151.429 83.8438C151.745 83.3867 152.155 83.0176 152.659 82.7363C153.169 82.4551 153.77 82.3145 154.461 82.3145C156.547 82.3145 157.607 83.4189 157.643 85.6279V92H156.017V85.7246C156.017 85.0449 155.861 84.5381 155.551 84.2041C155.24 83.8643 154.719 83.6943 153.986 83.6943C153.383 83.6943 152.882 83.876 152.483 84.2393C152.085 84.5967 151.854 85.0801 151.789 85.6895V92H150.154V85.7686C150.154 84.3857 149.478 83.6943 148.124 83.6943C147.058 83.6943 146.328 84.1484 145.936 85.0566V92H144.31V82.4902H145.848Z" fill="white"/>
</svg>
